<mxfile host="app.diagrams.net" agent="Mozilla/5.0 (Windows NT 10.0; Win64; x64) AppleWebKit/537.36 (KHTML, like Gecko) Chrome/137.0.0.0 Safari/537.36" version="27.1.5">
  <diagram name="Page-1" id="whJo3zpeCuc-1SJSXtdA">
    <mxGraphModel dx="1281" dy="534" grid="1" gridSize="10" guides="1" tooltips="1" connect="1" arrows="1" fold="1" page="1" pageScale="1" pageWidth="2000" pageHeight="2000" math="0" shadow="0">
      <root>
        <mxCell id="0" />
        <mxCell id="1" parent="0" />
        <mxCell id="RhevtmcQqe0NivJIvlGv-3" style="edgeStyle=orthogonalEdgeStyle;rounded=0;orthogonalLoop=1;jettySize=auto;html=1;exitX=1;exitY=0.5;exitDx=0;exitDy=0;entryX=0;entryY=0.5;entryDx=0;entryDy=0;strokeColor=light-dark(#000000,#3333FF);" edge="1" parent="1" source="RhevtmcQqe0NivJIvlGv-1" target="RhevtmcQqe0NivJIvlGv-2">
          <mxGeometry relative="1" as="geometry" />
        </mxCell>
        <mxCell id="RhevtmcQqe0NivJIvlGv-1" value="Utilizator" style="rounded=0;whiteSpace=wrap;html=1;" vertex="1" parent="1">
          <mxGeometry x="240" y="170" width="120" height="60" as="geometry" />
        </mxCell>
        <mxCell id="RhevtmcQqe0NivJIvlGv-10" style="edgeStyle=orthogonalEdgeStyle;rounded=0;orthogonalLoop=1;jettySize=auto;html=1;exitX=1;exitY=0.5;exitDx=0;exitDy=0;entryX=0;entryY=0.5;entryDx=0;entryDy=0;strokeColor=light-dark(#000000,#3333FF);" edge="1" parent="1" source="RhevtmcQqe0NivJIvlGv-2" target="RhevtmcQqe0NivJIvlGv-9">
          <mxGeometry relative="1" as="geometry" />
        </mxCell>
        <mxCell id="RhevtmcQqe0NivJIvlGv-2" value="Aplicatie steganografie" style="rounded=0;whiteSpace=wrap;html=1;" vertex="1" parent="1">
          <mxGeometry x="420" y="170" width="120" height="60" as="geometry" />
        </mxCell>
        <mxCell id="RhevtmcQqe0NivJIvlGv-6" style="edgeStyle=orthogonalEdgeStyle;rounded=0;orthogonalLoop=1;jettySize=auto;html=1;exitX=0.5;exitY=1;exitDx=0;exitDy=0;entryX=0.5;entryY=0;entryDx=0;entryDy=0;strokeColor=light-dark(#000000,#3333FF);" edge="1" parent="1" source="RhevtmcQqe0NivJIvlGv-4" target="RhevtmcQqe0NivJIvlGv-2">
          <mxGeometry relative="1" as="geometry" />
        </mxCell>
        <mxCell id="RhevtmcQqe0NivJIvlGv-4" value="Suport" style="rounded=0;whiteSpace=wrap;html=1;dashed=1;" vertex="1" parent="1">
          <mxGeometry x="455" y="110" width="50" height="30" as="geometry" />
        </mxCell>
        <mxCell id="RhevtmcQqe0NivJIvlGv-7" style="edgeStyle=orthogonalEdgeStyle;rounded=0;orthogonalLoop=1;jettySize=auto;html=1;exitX=0.5;exitY=0;exitDx=0;exitDy=0;entryX=0.5;entryY=1;entryDx=0;entryDy=0;strokeColor=light-dark(#000000,#3333FF);" edge="1" parent="1" source="RhevtmcQqe0NivJIvlGv-5" target="RhevtmcQqe0NivJIvlGv-2">
          <mxGeometry relative="1" as="geometry" />
        </mxCell>
        <mxCell id="RhevtmcQqe0NivJIvlGv-5" value="Informatie" style="rounded=0;whiteSpace=wrap;html=1;dashed=1;" vertex="1" parent="1">
          <mxGeometry x="445" y="260" width="70" height="30" as="geometry" />
        </mxCell>
        <mxCell id="RhevtmcQqe0NivJIvlGv-9" value="Imagine/audio/text&lt;div&gt;cu date ascunse&lt;/div&gt;" style="rounded=0;whiteSpace=wrap;html=1;" vertex="1" parent="1">
          <mxGeometry x="590" y="170" width="120" height="60" as="geometry" />
        </mxCell>
      </root>
    </mxGraphModel>
  </diagram>
</mxfile>
